HIERARCHY
ROOT Hips
{
	OFFSET -0.001795 -0.223333 0.028219
	CHANNELS 6 Xposition Yposition Zposition Zrotation Yrotation Xrotation 
	JOINT LeftUpLeg
	{
		OFFSET 0.069520 -0.091406 -0.006815
		CHANNELS 3 Zrotation Yrotation Xrotation
		JOINT LeftLeg
		{
			OFFSET 0.034277 -0.375199 -0.004496
			CHANNELS 3 Zrotation Yrotation Xrotation
			JOINT LeftFoot
			{
				OFFSET -0.013596 -0.397961 -0.043693
				CHANNELS 3 Zrotation Yrotation Xrotation
				JOINT LeftToe
				{
					OFFSET 0.026358 -0.055791 0.119288
					CHANNELS 3 Zrotation Yrotation Xrotation
					End Site
					{
						OFFSET 0.000000 0.000000 0.000000
					}
				}
			}
		}
	}
	JOINT RightUpLeg
	{
		OFFSET -0.067670 -0.090522 -0.004320
		CHANNELS 3 Zrotation Yrotation Xrotation
		JOINT RightLeg
		{
			OFFSET -0.038290 -0.382569 -0.008850
			CHANNELS 3 Zrotation Yrotation Xrotation
			JOINT RightFoot
			{
				OFFSET 0.015774 -0.398415 -0.042312
				CHANNELS 3 Zrotation Yrotation Xrotation
				JOINT RightToe
				{
					OFFSET -0.025372 -0.048144 0.123348
					CHANNELS 3 Zrotation Yrotation Xrotation
					End Site
					{
						OFFSET 0.000000 0.000000 0.000000
					}
				}
			}
		}
	}
	JOINT Spine
	{
		OFFSET -0.002533 0.108963 -0.026696
		CHANNELS 3 Zrotation Yrotation Xrotation
		JOINT Spine1
		{
			OFFSET 0.005487 0.135180 0.001092
			CHANNELS 3 Zrotation Yrotation Xrotation
			JOINT Spine2
			{
				OFFSET 0.001457 0.052922 0.025425
				CHANNELS 3 Zrotation Yrotation Xrotation
				JOINT Neck
				{
					OFFSET -0.002778 0.213870 -0.042857
					CHANNELS 3 Zrotation Yrotation Xrotation
					JOINT Head
					{
						OFFSET 0.005152 0.064970 0.051349
						CHANNELS 3 Zrotation Yrotation Xrotation
						End Site
						{
							OFFSET 0.000000 0.000000 0.000000
						}
					}
				}
				JOINT LeftShoulder
				{
					OFFSET 0.078845 0.121749 -0.034090
					CHANNELS 3 Zrotation Yrotation Xrotation
					JOINT LeftArm
					{
						OFFSET 0.090977 0.030469 -0.008868
						CHANNELS 3 Zrotation Yrotation Xrotation
						JOINT LeftForeArm
						{
							OFFSET 0.259612 -0.012772 -0.027456
							CHANNELS 3 Zrotation Yrotation Xrotation
							JOINT LeftHand
							{
								OFFSET 0.249234 0.008986 -0.001171
								CHANNELS 3 Zrotation Yrotation Xrotation
								End Site
								{
									OFFSET 0.000000 0.000000 0.000000
								}
							}
						}
					}
				}
				JOINT RightShoulder
				{
					OFFSET -0.081759 0.118833 -0.038615
					CHANNELS 3 Zrotation Yrotation Xrotation
					JOINT RightArm
					{
						OFFSET -0.096012 0.032551 -0.009143
						CHANNELS 3 Zrotation Yrotation Xrotation
						JOINT RightForeArm
						{
							OFFSET -0.253742 -0.013329 -0.021401
							CHANNELS 3 Zrotation Yrotation Xrotation
							JOINT RightHand
							{
								OFFSET -0.255298 0.007772 -0.005559
								CHANNELS 3 Zrotation Yrotation Xrotation
								End Site
								{
									OFFSET 0.000000 0.000000 0.000000
								}
							}
						}
					}
				}
			}
		}
	}
}
MOTION
Frames: 5
Frame Time: 0.050000
0.012791 0.709431 -0.045822 -0.002071 8.997123 19.643142 21.450630 -8.398528 42.826096 -12.838082 -7.590585 -80.702492 49.642426 21.209417 123.857681 0.000000 0.000000 0.000000 -27.190494 3.947368 37.746597 20.653636 4.995353 -76.783722 -76.986486 -30.347228 120.725580 0.000000 0.000000 0.000000 -5.034501 -0.655964 -24.407114 23.571505 7.685871 -92.159405 -11.088749 19.402166 105.230143 11.494675 2.216382 -100.111957 0.000000 0.000000 0.000000 -20.091846 6.005696 -2.553782 -35.220478 -26.559075 -14.989776 -67.626279 73.633840 -48.619758 0.000000 0.000000 0.000000 0.943133 -8.895646 -5.346234 34.784201 -12.974176 -20.076517 -113.737070 -36.673651 60.556097 0.000000 0.000000 0.000000 
0.012853 0.720650 -0.048014 -0.572968 8.086294 19.280138 20.656083 -7.737106 43.215823 -12.005700 -6.780365 -80.919129 47.934892 21.354781 123.391052 0.000000 0.000000 0.000000 -27.479606 4.255149 36.710692 21.658667 5.819713 -76.068928 -76.841688 -30.918552 119.560788 0.000000 0.000000 0.000000 -4.863895 -0.474438 -23.515300 25.762392 8.688444 -91.808527 -11.997470 20.976396 104.397531 13.720905 2.145610 -100.974780 0.000000 0.000000 0.000000 -20.592942 6.048715 -2.973408 -35.825305 -26.091585 -14.628102 -71.698013 72.447708 -51.409333 0.000000 0.000000 0.000000 2.220464 -8.468734 -4.494768 35.903612 -10.949586 -19.933807 -117.464458 -38.718951 67.533271 0.000000 0.000000 0.000000 
0.013310 0.732919 -0.050512 -1.002524 7.444378 19.066816 19.893500 -6.998233 42.467180 -10.726728 -5.620493 -79.415809 43.996833 21.329479 122.793755 0.000000 0.000000 0.000000 -27.284810 4.245929 34.813216 21.733058 5.799718 -74.306837 -79.530125 -31.648497 119.228751 0.000000 0.000000 0.000000 -4.313023 -0.297122 -22.853822 26.680439 9.165762 -91.268817 -11.763930 21.497844 104.013779 14.206381 2.057846 -101.292029 0.000000 0.000000 0.000000 -20.581407 5.737832 -3.021917 -36.032444 -25.711852 -14.410974 -74.690778 71.285978 -53.339153 0.000000 0.000000 0.000000 3.231844 -8.638309 -4.140092 36.506152 -9.808218 -19.920753 -120.164285 -40.525966 73.752817 0.000000 0.000000 0.000000 
0.014089 0.740096 -0.053076 -0.994460 7.427481 19.485800 19.445462 -6.606773 41.257278 -10.074455 -5.134737 -78.108450 41.516342 21.582937 121.174435 0.000000 0.000000 0.000000 -26.984351 4.069894 33.484878 21.430665 5.430380 -73.524253 -80.579195 -31.895340 119.246506 0.000000 0.000000 0.000000 -4.145404 -0.246684 -22.322114 27.804300 9.663113 -91.638686 -11.716272 22.410439 104.355362 12.572594 2.245748 -102.209393 0.000000 0.000000 0.000000 -21.386738 6.411417 -3.775361 -37.029342 -25.605484 -14.731043 -75.070811 72.651527 -54.161605 0.000000 0.000000 0.000000 3.763539 -9.038294 -4.161942 37.189846 -10.052953 -20.482751 -122.818245 -41.029423 78.113431 0.000000 0.000000 0.000000 
0.014921 0.740960 -0.054896 -0.709206 7.951063 20.241421 19.231181 -6.605688 40.644018 -9.478076 -4.947222 -77.950343 37.994317 21.942563 118.572402 0.000000 0.000000 0.000000 -26.511192 3.796950 33.344146 20.600139 4.735591 -73.914684 -76.973499 -30.898218 119.899439 0.000000 0.000000 0.000000 -3.865839 -0.240926 -21.894902 27.355238 9.690040 -93.691379 -10.503254 22.244794 106.143312 9.647771 2.319475 -102.761249 0.000000 0.000000 0.000000 -20.922514 6.662666 -3.854218 -38.158808 -25.036684 -15.656523 -77.557479 75.285619 -57.633942 0.000000 0.000000 0.000000 3.071481 -9.530497 -4.825313 37.371615 -11.476311 -21.175943 -123.697840 -41.445993 79.481415 0.000000 0.000000 0.000000 
